<svg width="230" height="70" viewBox="0 0 230 70" xmlns="http://www.w3.org/2000/svg">
  <text x="10" y="50" font-family="'Calvino', Georgia, 'Times New Roman', serif" font-weight="900" font-size="52" fill="#ffffff" letter-spacing="-1">allada</text>
  <g transform="translate(195, 34) scale(1)">
    <path d="M -2.5 -12 C -2.5 -5, -5 -2.5, -12 -2.5 A 2.5 2.5 0 0 0 -12 2.5 C -5 2.5, -2.5 5, -2.5 12 A 2.5 2.5 0 0 0 2.5 12 C 2.5 5, 5 2.5, 12 2.5 A 2.5 2.5 0 0 0 12 -2.5 C 5 -2.5, 2.5 -5, 2.5 -12 A 2.5 2.5 0 0 0 -2.5 -12 Z" fill="#fdb871" />
  </g>
</svg>
